<?xml version="1.0" encoding="UTF-8" standalone="no"?>
<!-- Created with Inkscape (http://www.inkscape.org/) -->

<svg width="210mm" height="297mm" viewBox="0 0 210 297" version="1.1" id="svg5" inkscape:version="1.2.2 (b0a8486541, 2022-12-01)" sodipodi:docname="playground-climbingframe.svg" xmlns:inkscape="http://www.inkscape.org/namespaces/inkscape" xmlns:sodipodi="http://sodipodi.sourceforge.net/DTD/sodipodi-0.dtd" xmlns="http://www.w3.org/2000/svg" xmlns:svg="http://www.w3.org/2000/svg">
  <sodipodi:namedview id="namedview7" pagecolor="#ffffff" bordercolor="#666666" borderopacity="1.0" inkscape:showpageshadow="2" inkscape:pageopacity="0.0" inkscape:pagecheckerboard="0" inkscape:deskcolor="#d1d1d1" inkscape:document-units="mm" showgrid="false" inkscape:zoom="0.914906" inkscape:cx="338.83262" inkscape:cy="571.09692" inkscape:window-width="1488" inkscape:window-height="1230" inkscape:window-x="185" inkscape:window-y="113" inkscape:window-maximized="0" inkscape:current-layer="layer1"></sodipodi:namedview>
  <defs id="defs2"></defs>
  <g inkscape:label="Warstwa 1" inkscape:groupmode="layer" id="layer1">
    <rect style="fill: #000; stroke: #000; stroke-width: .264583px" id="rect720" width="3.3301187" height="147.57285" x="95.438072" y="-19.491373" ry="0.37234113" transform="rotate(25.795619)"></rect>
    <rect style="fill: #000; stroke: #000; stroke-width: .264583px" id="rect720-3" width="3.3301187" height="147.57285" x="-77.97187" y="-210.29254" ry="0.37234113" transform="rotate(154.71219)"></rect>
    <rect style="fill: #000; stroke: #000; stroke-width: .264583px" id="rect720-6" width="3.3301187" height="147.57285" x="87.078835" y="42.662502" ry="0.37234113" transform="rotate(-10.663826)"></rect>
    <rect style="fill: #000; stroke: #000; stroke-width: .264583px" id="rect720-0" width="3.3301187" height="147.57285" x="97.495773" y="3.395278" ry="0.37234113" transform="rotate(13.122633)"></rect>
    <rect style="fill: #000; stroke: #000; stroke-width: .0775175px" id="rect720-62" width="1.6349106" height="25.801596" x="173.62549" y="-144.55763" ry="0.065100014" transform="matrix(0.05748296,0.99834649,-0.84423192,0.53597804,0,0)"></rect>
    <rect style="fill: #000; stroke: #000; stroke-width: .0894545px" id="rect720-62-6" width="1.6919851" height="33.200962" x="115.3235" y="-149.80132" ry="0.083769351" transform="matrix(-0.33045845,0.94382054,-0.99999996,-2.991345e-4,0,0)"></rect>
    <rect style="fill: #000; stroke: #000; stroke-width: .0703113px" id="rect720-62-6-8" width="1.5772136" height="22.00407" x="58.201729" y="-152.10583" ry="0.055518474" transform="matrix(-0.33721026,0.94142936,-0.96750907,-0.25283632,0,0)"></rect>
    <rect style="fill: #000; stroke: #000; stroke-width: .0703113px" id="rect720-62-6-8-7" width="1.5772136" height="22.00407" x="84.192238" y="-116.59106" ry="0.055518474" transform="matrix(-0.12602419,0.99202717,-0.99927737,-0.03800971,0,0)"></rect>
    <rect style="fill: #000; stroke: #000; stroke-width: .0703113px" id="rect720-62-6-8-9" width="1.5772136" height="22.00407" x="112.84885" y="-50.070965" ry="0.055518474" transform="matrix(0.31217776,0.95002371,-0.9187767,0.39477762,0,0)"></rect>
    <rect style="fill: #000; stroke: #000; stroke-width: .0640846px" id="rect720-62-6-1" width="1.2276913" height="23.483438" x="59.717369" y="-136.5519" ry="0.059251063" transform="matrix(-0.68735713,0.72631961,-0.87677017,-0.48090962,0,0)"></rect>
    <rect style="fill: #000; stroke: #000; stroke-width: .115306px" id="rect720-62-2" width="2.5064325" height="37.238132" x="218.27861" y="-163.37489" ry="0.093955547" transform="matrix(0.05269012,0.99861091,-0.82200136,0.56948553,0,0)"></rect>
    <rect style="fill: #000; stroke: #000; stroke-width: .130738px" id="rect720-62-6-0" width="2.571816" height="46.655491" x="152.13873" y="-163.70822" ry="0.11771648" transform="matrix(-0.30551011,0.95218883,-0.99999995,-3.2643102e-4,0,0)"></rect>
    <rect style="fill: #000; stroke: #000; stroke-width: .103053px" id="rect720-62-6-8-2" width="2.396482" height="31.109146" x="78.105095" y="-170.38643" ry="0.078491487" transform="matrix(-0.31186686,0.95012581,-0.96166117,-0.2742404,0,0)"></rect>
    <rect style="fill: #000; stroke: #000; stroke-width: .103156px" id="rect720-62-6-8-7-3" width="2.4155397" height="30.925377" x="108.49107" y="-121.73458" ry="0.078027822" transform="matrix(-0.11563315,0.99329199,-0.99913965,-0.04147245,0,0)"></rect>
    <rect style="fill: #000; stroke: #000; stroke-width: .103565px" id="rect720-62-6-8-9-7" width="2.3996594" height="31.377554" x="134.45895" y="-39.382381" ry="0.079168715" transform="matrix(0.28833344,0.95753007,-0.90541153,0.424535,0,0)"></rect>
    <rect style="fill: #000; stroke: #000; stroke-width: .0932415px" id="rect720-62-6-1-5" width="1.8099641" height="33.720337" x="89.536285" y="-150.92145" ry="0.085079782" transform="matrix(-0.65516962,0.75548181,-0.85804019,-0.51358255,0,0)"></rect>
  </g>
</svg>
